<svg width="70" height="62" viewBox="0 0 70 62" fill="none" xmlns="http://www.w3.org/2000/svg">
<path d="M64.9447 19.8778L63.8859 17.5H67.8125C68.3927 17.5 68.9491 17.2695 69.3593 16.8593C69.7695 16.4491 70 15.8927 70 15.3125C70 14.7323 69.7695 14.1759 69.3593 13.7657C68.9491 13.3555 68.3927 13.125 67.8125 13.125H61.9412L57.8419 3.89813C57.3264 2.73775 56.4853 1.75185 55.4206 1.05994C54.356 0.368031 53.1135 -0.000161101 51.8438 5.2879e-08H18.1562C16.8871 7.39792e-05 15.6453 0.368141 14.5811 1.05962C13.5169 1.75109 12.676 2.73631 12.1603 3.89594L8.05875 13.125H2.1875C1.60734 13.125 1.05094 13.3555 0.640704 13.7657C0.230468 14.1759 0 14.7323 0 15.3125C0 15.8927 0.230468 16.4491 0.640704 16.8593C1.05094 17.2695 1.60734 17.5 2.1875 17.5H6.125L5.06625 19.8778C3.62779 20.2146 2.34508 21.027 1.42566 22.1834C0.506248 23.3398 0.00393269 24.7726 0 26.25L0 43.75C0.00560649 45.1024 0.428934 46.4201 1.21207 47.5228C1.9952 48.6254 3.09989 49.4592 4.375 49.91V56.875C4.375 58.0353 4.83594 59.1481 5.65641 59.9686C6.47688 60.7891 7.58968 61.25 8.75 61.25H15.3125C16.4728 61.25 17.5856 60.7891 18.4061 59.9686C19.2266 59.1481 19.6875 58.0353 19.6875 56.875V50.3125H50.3125V56.875C50.3125 58.0353 50.7734 59.1481 51.5939 59.9686C52.4144 60.7891 53.5272 61.25 54.6875 61.25H61.25C62.4103 61.25 63.5231 60.7891 64.3436 59.9686C65.1641 59.1481 65.625 58.0353 65.625 56.875V49.91C66.9001 49.4592 68.0048 48.6254 68.7879 47.5228C69.5711 46.4201 69.9944 45.1024 70 43.75V26.25C69.9967 24.7741 69.4959 23.3425 68.5786 22.1862C67.6614 21.03 66.3811 20.2168 64.9447 19.8778ZM16.1569 5.67219C16.329 5.28581 16.6095 4.95763 16.9644 4.7274C17.3192 4.49716 17.7332 4.37476 18.1562 4.375H51.8438C52.267 4.37495 52.6812 4.49768 53.036 4.72831C53.3909 4.95895 53.6713 5.28758 53.8431 5.67437L60.0709 19.6875H9.92906L16.1569 5.67219ZM15.3125 56.875H8.75V50.3125H15.3125V56.875ZM54.6875 56.875V50.3125H61.25V56.875H54.6875ZM65.625 43.75C65.625 44.3302 65.3945 44.8866 64.9843 45.2968C64.5741 45.707 64.0177 45.9375 63.4375 45.9375H6.5625C5.98234 45.9375 5.42594 45.707 5.0157 45.2968C4.60547 44.8866 4.375 44.3302 4.375 43.75V26.25C4.375 25.6698 4.60547 25.1134 5.0157 24.7032C5.42594 24.293 5.98234 24.0625 6.5625 24.0625H63.4375C64.0177 24.0625 64.5741 24.293 64.9843 24.7032C65.3945 25.1134 65.625 25.6698 65.625 26.25V43.75Z" fill="white"/>
<path d="M54.6875 28.4375C53.3896 28.4375 52.1208 28.8224 51.0416 29.5435C49.9624 30.2646 49.1212 31.2895 48.6245 32.4886C48.1278 33.6878 47.9979 35.0073 48.2511 36.2803C48.5043 37.5533 49.1293 38.7226 50.0471 39.6404C50.9649 40.5582 52.1342 41.1832 53.4072 41.4364C54.6802 41.6896 55.9997 41.5597 57.1989 41.063C58.398 40.5663 59.4229 39.7251 60.144 38.6459C60.8651 37.5667 61.25 36.2979 61.25 35C61.25 33.2595 60.5586 31.5903 59.3279 30.3596C58.0972 29.1289 56.428 28.4375 54.6875 28.4375ZM54.6875 37.1875C54.2549 37.1875 53.8319 37.0592 53.4722 36.8188C53.1125 36.5785 52.8321 36.2368 52.6665 35.8371C52.501 35.4374 52.4576 34.9976 52.542 34.5732C52.6264 34.1489 52.8348 33.7591 53.1407 33.4532C53.4466 33.1473 53.8364 32.9389 54.2607 32.8545C54.6851 32.7701 55.1249 32.8134 55.5246 32.979C55.9243 33.1446 56.266 33.425 56.5063 33.7847C56.7467 34.1444 56.875 34.5674 56.875 35C56.875 35.5802 56.6445 36.1366 56.2343 36.5468C55.8241 36.957 55.2677 37.1875 54.6875 37.1875Z" fill="white"/>
<path d="M15.3125 28.4375C14.0146 28.4375 12.7458 28.8224 11.6666 29.5435C10.5874 30.2646 9.74624 31.2895 9.24954 32.4886C8.75284 33.6878 8.62288 35.0073 8.8761 36.2803C9.12932 37.5533 9.75433 38.7226 10.6721 39.6404C11.5899 40.5582 12.7592 41.1832 14.0322 41.4364C15.3052 41.6896 16.6247 41.5597 17.8239 41.063C19.023 40.5663 20.0479 39.7251 20.769 38.6459C21.4901 37.5667 21.875 36.2979 21.875 35C21.875 33.2595 21.1836 31.5903 19.9529 30.3596C18.7222 29.1289 17.053 28.4375 15.3125 28.4375ZM15.3125 37.1875C14.8799 37.1875 14.4569 37.0592 14.0972 36.8188C13.7375 36.5785 13.4571 36.2368 13.2915 35.8371C13.1259 35.4374 13.0826 34.9976 13.167 34.5732C13.2514 34.1489 13.4598 33.7591 13.7657 33.4532C14.0716 33.1473 14.4614 32.9389 14.8857 32.8545C15.3101 32.7701 15.7499 32.8134 16.1496 32.979C16.5493 33.1446 16.891 33.425 17.1313 33.7847C17.3717 34.1444 17.5 34.5674 17.5 35C17.5 35.5802 17.2695 36.1366 16.8593 36.5468C16.4491 36.957 15.8927 37.1875 15.3125 37.1875Z" fill="white"/>
</svg>
