<svg width="67" height="67" viewBox="0 0 67 67" fill="none" xmlns="http://www.w3.org/2000/svg">
<path d="M66.6111 28.0377C67.4138 25.9338 66.9706 23.4594 65.278 21.7668L45.2332 1.72202C42.9371 -0.574138 39.2009 -0.573876 36.905 1.72202L14.3699 24.2572H5.88893C2.64177 24.2572 0 26.899 0 30.1462V61.1111C0 64.3582 2.64177 67 5.88893 67H61.114C64.3611 67 67.0029 64.3582 67.0029 61.1111V30.1462C67.0029 29.4033 66.8633 28.6928 66.6111 28.0377ZM62.3475 24.3882C61.9496 24.3031 61.5371 24.2572 61.114 24.2572H56.8605L59.5385 21.5792L62.3475 24.3882ZM56.7625 18.8032L51.3084 24.2572H45.7561L53.9863 16.027L56.7625 18.8032ZM39.6812 4.49806C40.0639 4.11541 40.5666 3.92396 41.0693 3.92396C41.5719 3.92396 42.0746 4.11541 42.4572 4.49806L51.2103 13.2511L40.204 24.2574H19.9219L39.6812 4.49806ZM63.077 61.1111C63.077 62.1935 62.1964 63.0741 61.114 63.0741H5.88893C4.80654 63.0741 3.92595 62.1935 3.92595 61.1111V30.1462C3.92595 29.0638 4.80654 28.1832 5.88893 28.1832H61.114C62.1964 28.1832 63.077 29.0638 63.077 30.1462V61.1111Z" fill="white"/>
<path d="M7.72095 53.207H16.8688V57.133H7.72095V53.207Z" fill="white"/>
<path d="M21.8586 53.207H31.0064V57.133H21.8586V53.207Z" fill="white"/>
<path d="M35.9961 53.207H45.1438V57.133H35.9961V53.207Z" fill="white"/>
<path d="M50.1343 53.207H59.2821V57.133H50.1343V53.207Z" fill="white"/>
<path d="M17.8325 33.418H11.1234C9.31946 33.418 7.85181 34.8856 7.85181 36.6896V41.9242C7.85181 43.7282 9.31946 45.1958 11.1234 45.1958H17.8325C19.6365 45.1958 21.1041 43.7282 21.1041 41.9242V36.6896C21.1041 34.8856 19.6365 33.418 17.8325 33.418ZM17.1782 41.2699H11.7778V37.3439H17.1782V41.2699Z" fill="white"/>
</svg>
