<svg width="19" height="18" viewBox="0 0 19 18" fill="none" xmlns="http://www.w3.org/2000/svg">
<path d="M17.7729 2.73003C18.2843 2.21867 18.2843 1.38959 17.7729 0.878232C17.2616 0.366871 16.4325 0.366871 15.9211 0.878232L9.5055 7.29387L3.08986 0.878232C2.5785 0.366871 1.74942 0.366871 1.23806 0.878232C0.726699 1.38959 0.726699 2.21867 1.23806 2.73003L7.6537 9.14567L1.23806 15.5613C0.726699 16.0727 0.726699 16.9018 1.23806 17.4131C1.74942 17.9245 2.5785 17.9245 3.08986 17.4131L9.5055 10.9975L15.9211 17.4131C16.4325 17.9245 17.2616 17.9245 17.7729 17.4131C18.2843 16.9018 18.2843 16.0727 17.7729 15.5613L11.3573 9.14567L17.7729 2.73003Z" fill="black"/>
</svg>
