<svg width="99" height="75" viewBox="0 0 99 75" fill="none" xmlns="http://www.w3.org/2000/svg">
<path d="M96.8472 22.3656H85.2057L82.1096 14.3156C78.8896 6.01798 70.8396 0.692627 61.9227 0.692627H37.4013C28.4845 0.692627 20.5583 6.01798 17.2145 14.3156L13.9945 22.3656H2.35306C1.11461 22.3656 0 23.3563 0 24.7187C0 24.8425 4.70588e-07 25.0902 0.123846 25.214L1.23845 29.9202C1.48615 30.9109 2.47691 31.654 3.46767 31.654H7.55457C4.82997 34.0071 3.21998 37.3509 3.21998 40.9424V50.2308C3.21998 53.2031 4.33459 56.0516 6.31612 58.4046V68.8076C6.31612 72.2753 9.04072 74.9999 12.5084 74.9999H18.7007C22.1683 74.9999 24.8929 72.2753 24.8929 68.8076V62.6154H74.4311V68.8076C74.4311 72.2753 77.1557 74.9999 80.6234 74.9999H86.8157C90.2834 74.9999 93.008 72.2753 93.008 68.8076V58.2808C94.9895 56.0516 96.1041 53.2031 96.1041 50.107V40.8186C96.1041 37.227 94.4941 33.8832 91.7695 31.5302H95.6087C96.7233 31.5302 97.5902 30.7871 97.8379 29.7963L98.9525 25.0902C99.2002 23.8517 98.4572 22.6133 97.2187 22.2417C97.2187 22.3656 97.0949 22.3656 96.8472 22.3656ZM28.7322 18.8979C30.0944 15.3064 33.5621 13.0772 37.4013 13.0772H61.9227C65.7619 13.0772 69.2296 15.4302 70.5919 18.8979L74.4311 28.5579H24.8929L28.7322 18.8979ZM18.7007 50.2308C15.4807 50.4785 12.7561 48.0016 12.5084 44.7816C12.5084 44.5339 12.5084 44.2862 12.5084 44.0385C12.2607 40.8186 14.7376 38.094 17.9576 37.8463H18.7007C22.416 37.8463 27.9891 43.4193 27.9891 47.1347C27.9891 50.85 22.416 50.2308 18.7007 50.2308ZM80.6234 50.2308C76.908 50.2308 71.335 50.85 71.335 47.1347C71.335 43.4193 76.908 37.8463 80.6234 37.8463C83.8434 37.5986 86.568 40.0755 86.8157 43.2955V44.0385C87.0634 47.2585 84.5865 49.9831 81.3665 50.2308C81.1188 50.2308 80.8711 50.2308 80.6234 50.2308Z" fill="#4CAA93"/>
</svg>
