<svg width="49" height="65" viewBox="0 0 49 65" fill="none" xmlns="http://www.w3.org/2000/svg">
<path fill-rule="evenodd" clip-rule="evenodd" d="M14.3275 31.4229C12.8511 37.0509 7.87971 36.0856 7.87971 36.0856C3.65645 35.3566 2.2486 27.7016 2.2486 27.7016C-0.384593 30.9742 -0.54121 42.2824 0.930936 46.5499C4.33697 56.422 9.86581 62.4542 19.1307 64.5942C13.8121 60.3559 14.4151 53.8218 15.3941 51.7894C17.2935 54.3189 19.0098 54.2958 20.0673 53.8846C21.9595 53.1492 20.9763 48.414 21.2373 46.483C21.936 41.3274 25.6439 38.3403 25.6439 38.3403C25.2179 43.6357 28.2422 45.424 30.6779 48.8111C33.7581 53.0952 34.9284 59.5005 31.9154 64.0543C41.3783 60.5796 45.8901 51.0308 45.8901 51.0308C52.929 34.9919 43.0747 18.5888 43.0747 18.5888C39.2033 28.0662 33.5719 26.6081 33.5719 26.6081C26.3634 24.6604 27.2488 14.9074 27.529 12.7957C27.9959 9.27438 29.4056 3.70249 26.533 0.727295C26.181 4.73704 25.4772 6.92416 21.6057 8.74679C9.6759 14.3632 16.0298 24.9359 14.3275 31.4229Z" fill="white"/>
</svg>
