<svg width="122" height="122" viewBox="0 0 122 122" fill="none" xmlns="http://www.w3.org/2000/svg">
<path d="M61 0C27.3113 0 0 27.3113 0 61C0 94.6893 27.3113 122 61 122C94.689 122 122 94.6893 122 61.0003C122 27.3113 94.6893 0 61 0ZM23.5783 88.7657C18.5803 81.6671 15.5433 72.2184 15.2626 63.8048H41.3679C40.4171 72.2184 31.5688 84.371 23.5783 88.7657ZM61 106.808C52.1851 106.808 43.9732 104.3 37.0011 99.9756C40.515 95.0703 44.7613 85.3048 62.1723 85.3048C78.9999 85.3048 83.0946 92.0725 87.3435 98.4193C79.8974 103.695 70.8244 106.808 61 106.808ZM53.6381 65.207C53.6381 60.7531 57.2476 57.1438 61.7013 57.1438C66.1552 57.1438 69.7644 60.7534 69.7644 65.207C69.7644 69.6606 66.1549 73.2702 61.7013 73.2702C57.2476 73.2702 53.6381 69.6609 53.6381 65.207ZM98.9798 87.9019C86.4601 82.8705 84.842 72.2184 83.9612 63.8048H106.737C106.468 72.2184 103.63 80.9688 98.9798 87.9019ZM16.993 49.7816C22.4791 30.1492 40.0836 16.5947 61 16.5947C81.9167 16.5947 99.5212 30.1495 105.007 49.7816H16.993Z" fill="#4CAA93"/>
</svg>
