<svg width="130" height="26" viewBox="0 0 130 26" fill="none" xmlns="http://www.w3.org/2000/svg">
<g clip-path="url(#clip0_304_2)">
<path d="M10.657 0.653076C16.02 0.653076 21.348 2.20007 21.348 9.35307C21.348 14.9911 17.395 17.5691 12.135 17.5691H7.46001V25.1321H0V0.653076H10.657ZM7.457 11.8601H11.066C12.888 11.8601 14.161 11.2761 14.161 9.28207C14.161 7.52907 13.129 6.66908 10.929 6.66908H7.457V11.8601Z" fill="#EC2830"/>
<path d="M48.299 12.891C48.299 20.557 43.348 25.713 35.992 25.713C28.498 25.713 23.479 20.591 23.479 12.857C23.479 5.08801 28.463 0 36.061 0C43.383 0 48.299 5.19001 48.299 12.891ZM31.11 12.753C31.11 17.118 32.898 19.628 35.992 19.628C39.051 19.628 40.701 17.188 40.701 12.546C40.701 8.45501 38.948 6.01401 35.957 6.01401C32.932 6.01401 31.11 8.559 31.11 12.752" fill="#EC2830"/>
<path d="M73.257 0.653076V25.1291H65.797V6.94408H61.297V8.38608C61.297 15.3301 61.469 25.5751 52.772 25.5751C51.7485 25.5899 50.7321 25.4027 49.781 25.0241V19.2141C50.233 19.4652 50.742 19.5957 51.259 19.5931C53.803 19.5931 53.906 15.1581 53.906 11.1701V0.653076H73.257Z" fill="#EC2830"/>
<path d="M84.296 8.24893H88.455C95.124 8.24893 98.116 11.3769 98.116 16.4989C98.116 21.7929 94.716 25.0929 88.009 25.0929H76.802V0.61792H84.296V8.24893ZM84.296 19.2489H87.737C89.352 19.2489 90.831 18.6989 90.831 16.5669C90.831 14.4669 89.559 13.8169 87.772 13.8169H84.3L84.296 19.2489Z" fill="#EC2830"/>
<path d="M118.741 22.7579V25.1299H111.384V22.7579C104.474 22.7579 100.177 18.5289 100.177 12.7889C100.177 8.21593 103.34 3.08893 111.384 3.08893V0.648926H118.741V3.08893C125.857 3.08893 129.841 7.45493 129.841 12.7139C129.841 18.4889 125.922 22.7529 118.741 22.7529M111.556 8.38593C108.565 8.38593 107.671 10.9639 107.671 12.7859C107.671 14.9509 108.599 17.4269 111.556 17.4269V8.38593ZM118.569 8.38593V17.3919C121.769 17.3919 122.35 14.4699 122.35 12.7859C122.35 11.1359 121.628 8.38593 118.569 8.38593Z" fill="#EC2830"/>
</g>
<defs>
<clipPath id="clip0_304_2">
<rect width="129.845" height="25.713" fill="white"/>
</clipPath>
</defs>
</svg>
