<svg width="149" height="29" viewBox="0 0 149 29" fill="none" xmlns="http://www.w3.org/2000/svg">
<path d="M96.5868 0H77.573C76.7079 0 75.9966 0.711333 75.9966 1.55724V12.5348C75.9966 13.4 76.7079 14.1113 77.573 14.1113H96.5868C97.4519 14.1113 98.1633 13.4 98.1633 12.5348V1.55724C98.1633 0.692107 97.4519 0 96.5868 0ZM80.2261 11.1506V2.96068C80.2261 2.96068 80.2646 2.88378 80.303 2.88378H93.8953C93.8953 2.88378 93.9722 2.92223 93.9722 2.96068V11.1314C93.9722 11.1314 93.9337 11.2083 93.8953 11.2083H80.303C80.303 11.2083 80.2261 11.1698 80.2261 11.1314" fill="#333333"/>
<path d="M21.3592 0H17.4373C17.4373 0 17.3027 0.0576756 17.3027 0.134576V11.1314C17.3027 11.1314 17.2835 11.2083 17.2258 11.2083H4.28722C4.28722 11.2083 4.21032 11.1698 4.21032 11.1314V8.80515C4.21032 8.80515 4.15264 8.67057 4.07574 8.67057H0.134576C0.134576 8.67057 0 8.72824 0 8.80515V12.5348C0 13.4 0.711333 14.1113 1.57647 14.1113H19.9365C20.8017 14.1113 21.513 13.4 21.513 12.5348V0.134576C21.513 0.134576 21.4553 0 21.3784 0" fill="#333333"/>
<path d="M72.1137 0H50.5238C50.5238 0 50.3892 0.0576756 50.3892 0.134576V2.7492C50.3892 2.7492 50.4469 2.88378 50.5238 2.88378H59.1367C59.1367 2.88378 59.2136 2.92223 59.2136 2.96068V13.9575C59.2136 13.9575 59.2713 14.0921 59.3482 14.0921H63.2701C63.2701 14.0921 63.4239 14.0344 63.4239 13.9575V2.96068C63.4239 2.96068 63.4431 2.88378 63.5008 2.88378H72.1137C72.1137 2.88378 72.2483 2.82611 72.2483 2.7492V0.134576C72.2483 0.134576 72.1906 0 72.1137 0Z" fill="#333333"/>
<path d="M123.157 0H119.235C119.235 0 119.1 0.0576756 119.1 0.134576V11.1314C119.1 11.1314 119.062 11.2083 119.023 11.2083H106.2C106.2 11.2083 106.123 11.1698 106.123 11.1314V0.134576C106.123 0.134576 106.066 0 105.989 0H102.067C102.067 0 101.932 0.0576756 101.932 0.134576V12.5348C101.932 13.4 102.624 14.1113 103.489 14.1113H121.753C122.618 14.1113 123.33 13.4 123.33 12.5348V0.134576C123.33 0.134576 123.272 0 123.176 0" fill="#333333"/>
<path d="M148.938 13.8614L140.921 8.36297H147.169C148.035 8.36297 148.727 7.67086 148.727 6.80572V1.55724C148.727 0.692107 148.035 0 147.169 0H127.214C127.214 0 127.079 0.0576756 127.079 0.134576V13.9767C127.079 13.9767 127.137 14.1113 127.214 14.1113H131.136C131.136 14.1113 131.27 14.0536 131.27 13.9767V5.97904L143.055 14.0536C143.055 14.0536 143.19 14.1113 143.267 14.1113H148.861C148.996 14.1113 149.054 13.9383 148.938 13.8614ZM131.347 2.90301H144.459C144.459 2.90301 144.536 2.94146 144.536 2.97991V5.40228C144.536 5.40228 144.497 5.47918 144.459 5.47918H131.347C131.347 5.47918 131.27 5.44073 131.27 5.40228V2.97991C131.27 2.97991 131.309 2.90301 131.347 2.90301Z" fill="#333333"/>
<path d="M46.4867 2.90301C46.4867 2.90301 46.6213 2.84533 46.6213 2.76843V0.134576C46.6213 0.134576 46.5636 0 46.4867 0H26.8193C25.9542 0 25.2429 0.692107 25.2429 1.55724V12.5348C25.2429 13.4 25.9542 14.1113 26.8193 14.1113H46.4867C46.4867 14.1113 46.6213 14.0536 46.6213 13.9767V11.3621C46.6213 11.3621 46.5636 11.2275 46.4867 11.2275H29.5493C29.5493 11.2275 29.4724 11.1891 29.4724 11.1506V8.57444C29.4724 8.57444 29.5109 8.49754 29.5493 8.49754H45.4101C45.4101 8.49754 45.5447 8.43987 45.5447 8.36297V5.74834C45.5447 5.74834 45.487 5.61376 45.4101 5.61376H29.5493C29.5493 5.61376 29.4724 5.57531 29.4724 5.53686V2.96068C29.4724 2.96068 29.5109 2.88378 29.5493 2.88378H46.4867V2.90301Z" fill="#333333"/>
<path d="M22.8009 20.4751C23.1854 20.4751 23.5507 20.552 23.8775 20.6865C24.2044 20.8403 24.4927 21.0326 24.7427 21.2825C24.9926 21.5325 25.1848 21.8208 25.3386 22.1477C25.4924 22.4745 25.5693 22.8398 25.5886 23.205C25.5886 23.3588 25.5886 23.5703 25.5886 23.801C25.5886 24.0317 25.5886 24.2817 25.5886 24.5124C25.5886 24.7431 25.5886 24.993 25.5886 25.2237C25.5886 25.4544 25.5886 25.6466 25.5886 25.8197C25.5693 26.185 25.4732 26.531 25.3386 26.8771C25.1848 27.2039 24.9926 27.4923 24.7427 27.7422C24.4927 27.9921 24.2044 28.1844 23.8775 28.3382C23.5507 28.492 23.1854 28.5497 22.8009 28.5497H17.7639C17.7639 28.5497 17.6678 28.5112 17.6678 28.4535V20.5904C17.6678 20.5904 17.7062 20.4943 17.7639 20.4943H22.8009V20.4751ZM22.6471 27.1654C22.8394 27.1654 22.9932 27.127 23.1277 27.0309C23.2623 26.954 23.3777 26.8386 23.493 26.704C23.5892 26.5695 23.6661 26.4157 23.7237 26.2619C23.7814 26.0888 23.8199 25.935 23.8199 25.7812C23.8199 25.6274 23.8199 25.4352 23.8199 25.2237C23.8199 25.0122 23.8199 24.7815 23.8199 24.5316C23.8199 24.2817 23.8199 24.0702 23.8199 23.8395C23.8199 23.6088 23.8199 23.4165 23.8199 23.2627C23.8199 23.1089 23.7814 22.9359 23.7237 22.7629C23.6661 22.5898 23.5892 22.436 23.493 22.3207C23.3969 22.1861 23.2815 22.09 23.1277 21.9939C22.9932 21.917 22.8201 21.8593 22.6471 21.8593H19.4557V27.1654H22.6471Z" fill="#333333"/>
<path d="M31.587 22.782C31.587 22.782 31.6831 22.8205 31.6831 22.8782V23.9356C31.6831 23.9356 31.6447 24.0317 31.587 24.0317H29.28C29.0493 24.0317 28.857 24.0509 28.7224 24.0894C28.5879 24.1278 28.4725 24.1855 28.3956 24.2432C28.3187 24.3008 28.261 24.397 28.2418 24.4931C28.2226 24.5892 28.2034 24.7046 28.2034 24.8199V28.415C28.2034 28.415 28.1649 28.5112 28.1072 28.5112H26.7422C26.7422 28.5112 26.6461 28.4727 26.6461 28.415V24.6661C26.6461 24.0317 26.8576 23.5703 27.2613 23.2434C27.6651 22.9166 28.3187 22.7628 29.1838 22.7628H31.6062L31.587 22.782Z" fill="#333333"/>
<path d="M34.1629 20.4751C34.1629 20.4751 34.259 20.5135 34.259 20.5712V21.8785C34.259 21.8785 34.2206 21.9746 34.1629 21.9746H32.7979C32.7979 21.9746 32.7018 21.9362 32.7018 21.8785V20.5712C32.7018 20.5712 32.7402 20.4751 32.7979 20.4751H34.1629ZM34.1629 22.7821C34.1629 22.7821 34.259 22.8205 34.259 22.8782V28.4343C34.259 28.4343 34.2206 28.5304 34.1629 28.5304H32.7979C32.7979 28.5304 32.7018 28.492 32.7018 28.4343V22.8782C32.7018 22.8782 32.7402 22.7821 32.7979 22.7821H34.1629Z" fill="#333333"/>
<path d="M42.2575 22.7438C42.3728 22.7438 42.4113 22.8014 42.3536 22.8976C41.9883 23.7243 41.6615 24.4548 41.3731 25.1277C41.2578 25.4161 41.1232 25.6852 41.0078 25.9736C40.8925 26.2428 40.7771 26.4927 40.681 26.7234C40.5849 26.9541 40.508 27.1271 40.4311 27.2809C40.3734 27.4347 40.3349 27.5309 40.3157 27.5501C40.2004 27.7808 40.085 27.973 39.9697 28.1268C39.8543 28.2806 39.7005 28.3768 39.5275 28.4344C39.4506 28.4729 39.3352 28.4921 39.2199 28.5113C39.0853 28.5113 38.97 28.5306 38.8354 28.5306C38.7008 28.5306 38.5854 28.5306 38.4701 28.5113C38.3547 28.5113 38.2586 28.4729 38.1625 28.4344C37.9895 28.3575 37.8357 28.2614 37.7011 28.1268C37.5665 27.9923 37.4512 27.8 37.355 27.5501C37.355 27.5116 37.2974 27.4347 37.2205 27.2809C37.1436 27.1271 37.0667 26.9349 36.9705 26.7234C36.8744 26.4927 36.7591 26.2428 36.6437 25.9736C36.5283 25.7045 36.3938 25.4161 36.2784 25.1277C35.99 24.474 35.6632 23.7243 35.2979 22.8976C35.2595 22.8014 35.2979 22.7438 35.3941 22.7438H36.6629C36.8167 22.7438 36.9129 22.8207 36.9705 22.9553L38.7008 26.858C38.7008 26.858 38.72 26.9156 38.7585 26.9349C38.7585 26.9349 38.7969 26.9349 38.8162 26.9349C38.8546 26.9349 38.8738 26.9349 38.8738 26.9349C38.9123 26.9349 38.9315 26.8964 38.9507 26.858L40.6618 22.9553C40.7194 22.8207 40.8348 22.7438 40.9886 22.7438H42.2767H42.2575Z" fill="#333333"/>
<path d="M48.0625 22.782C48.3509 22.782 48.62 22.8397 48.8507 22.9358C49.1006 23.0512 49.3121 23.1858 49.4851 23.378C49.6582 23.5703 49.7927 23.7818 49.9081 24.0125C50.0042 24.2624 50.0619 24.5123 50.0619 24.7622V25.7427C50.0619 25.8773 50.0042 26.0119 49.8889 26.1272C49.7735 26.2618 49.6197 26.3195 49.4467 26.3195H44.9672V26.531C44.9672 26.704 45.0249 26.877 45.1402 27.0308C45.2556 27.1846 45.4094 27.2615 45.6209 27.2615H49.6582C49.6582 27.2615 49.7543 27.3 49.7543 27.3576V28.415C49.7543 28.415 49.7158 28.5112 49.6582 28.5112H45.4094C45.121 28.5112 44.8519 28.4535 44.6019 28.3189C44.352 28.2036 44.1598 28.0305 43.9867 27.8383C43.8137 27.646 43.6791 27.4153 43.5638 27.1654C43.4676 26.9155 43.41 26.6655 43.3907 26.3964C43.3907 26.281 43.3907 26.1657 43.3907 26.0311C43.3907 25.8965 43.3907 25.762 43.3907 25.6274C43.3907 25.4928 43.3907 25.3582 43.3907 25.2236C43.3907 25.0891 43.3907 24.9737 43.3907 24.8584C43.3907 24.5892 43.4484 24.3393 43.5638 24.0894C43.6599 23.8394 43.8137 23.6087 43.9867 23.4165C44.1598 23.2242 44.3712 23.0512 44.6212 22.9358C44.8711 22.8205 45.121 22.7628 45.4286 22.7628H48.0817L48.0625 22.782ZM48.3124 25.0891C48.3124 25.0891 48.4085 25.0891 48.447 25.0314C48.4854 24.9929 48.5047 24.9545 48.5047 24.8968V24.7046C48.5047 24.4546 48.447 24.2816 48.3509 24.1855C48.2355 24.0894 48.0817 24.0509 47.8894 24.0509H45.6401C45.4478 24.0509 45.2748 24.1086 45.1595 24.2432C45.0441 24.3777 44.9864 24.5315 44.9864 24.7046V25.0891H48.3316H48.3124Z" fill="#333333"/>
<path d="M64.7307 20.4751C64.7307 20.4751 64.8076 20.4943 64.8269 20.5327C64.8269 20.5712 64.8269 20.6096 64.8076 20.6289L60.4627 25.4159V28.4343C60.4627 28.4343 60.4243 28.5304 60.3666 28.5304H58.8094C58.8094 28.5304 58.7132 28.492 58.7132 28.4343V25.3775L54.3683 20.6289C54.3683 20.6289 54.3299 20.5712 54.3683 20.5327C54.3683 20.4943 54.4068 20.4751 54.4452 20.4751H56.1947C56.3485 20.4751 56.4831 20.5327 56.5792 20.6289L59.3669 23.6665C59.3669 23.6665 59.5207 23.7626 59.6168 23.7626C59.713 23.7626 59.8091 23.7241 59.8668 23.6665L62.6352 20.6289C62.7313 20.5135 62.8467 20.4751 63.0197 20.4751H64.7692H64.7307Z" fill="#333333"/>
<path d="M68.4602 22.7241C68.8447 22.7241 69.2292 22.7241 69.6137 22.7433C69.979 22.7433 70.325 22.8202 70.6134 22.9164C70.9018 23.0125 71.1325 23.1471 71.3247 23.3393C71.4978 23.5124 71.6516 23.7238 71.7477 23.993C71.863 24.2429 71.9207 24.5121 71.9592 24.7812C71.9976 25.0696 72.0168 25.358 72.0168 25.6848C72.0168 26.0116 72.0168 26.2808 71.9592 26.5692C71.9207 26.8575 71.863 27.1267 71.7477 27.3574C71.6516 27.6265 71.517 27.838 71.3247 28.0111C71.1325 28.1841 70.9018 28.3187 70.6134 28.434C70.3442 28.5109 70.0174 28.5686 69.6521 28.5878C69.2676 28.5878 68.8831 28.607 68.4794 28.607C68.0757 28.607 67.6912 28.607 67.3067 28.5878C66.9222 28.5686 66.6145 28.5109 66.3454 28.434C66.057 28.3379 65.8071 28.2033 65.6341 28.0111C65.4418 27.838 65.3072 27.6073 65.2111 27.3574C65.115 27.1267 65.0381 26.8575 64.9996 26.5692C64.9612 26.2808 64.942 25.9924 64.942 25.6848C64.942 25.358 64.942 25.0504 64.9996 24.7812C65.0381 24.4928 65.115 24.2429 65.2111 23.993C65.3072 23.7431 65.461 23.5316 65.6341 23.3393C65.8263 23.1471 66.057 23.0125 66.3454 22.9164C66.6338 22.8395 66.9606 22.7818 67.3451 22.7626C67.7296 22.7433 68.0949 22.7241 68.4794 22.7241H68.4602ZM68.4602 27.3382C68.7293 27.3382 68.9792 27.3382 69.2292 27.3382C69.4791 27.3382 69.6714 27.2997 69.8252 27.242C69.979 27.1844 70.0751 27.1075 70.152 27.0306C70.2289 26.9344 70.2673 26.8191 70.3058 26.7037C70.3442 26.5692 70.3635 26.4154 70.3827 26.2423C70.3827 26.0693 70.3827 25.8963 70.3827 25.6848C70.3827 25.4733 70.3827 25.2811 70.3827 25.108C70.3827 24.935 70.3442 24.7812 70.3058 24.6466C70.2673 24.5121 70.2097 24.3967 70.152 24.3006C70.0751 24.2045 69.979 24.1276 69.8252 24.0891C69.6521 24.0507 69.4599 24.0122 69.21 23.993C68.96 23.993 68.7101 23.993 68.4602 23.993C68.2102 23.993 67.9411 23.993 67.6912 23.993C67.4605 23.993 67.249 24.0314 67.076 24.0891C66.9414 24.1276 66.826 24.2045 66.7684 24.3006C66.6915 24.3967 66.6338 24.5121 66.5953 24.6466C66.5569 24.8004 66.5376 24.9542 66.5184 25.1273C66.5184 25.3003 66.4992 25.4733 66.4992 25.6848C66.4992 25.8771 66.4992 26.0501 66.5184 26.2231C66.5184 26.3961 66.5569 26.5499 66.5953 26.7037C66.6338 26.8383 66.6915 26.9537 66.7684 27.0306C66.8453 27.1267 66.9414 27.2036 67.076 27.242C67.2298 27.2997 67.422 27.3189 67.6719 27.3382C67.9219 27.3382 68.1718 27.3382 68.4409 27.3382H68.4602Z" fill="#333333"/>
<path d="M79.2851 22.782C79.2851 22.782 79.3812 22.8205 79.3812 22.8782V25.5889C79.3812 25.9158 79.3812 26.2234 79.3235 26.5117C79.2851 26.8001 79.2274 27.0693 79.1313 27.3192C79.0351 27.5691 78.9006 27.7806 78.7083 27.9728C78.516 28.1651 78.2853 28.2805 77.997 28.3766C77.7278 28.4535 77.4587 28.5112 77.1895 28.5496C76.9204 28.5688 76.5935 28.5881 76.1898 28.5881C75.7861 28.5881 75.4592 28.5881 75.1901 28.5496C74.9209 28.5304 74.6518 28.4727 74.3826 28.3766C74.0942 28.2805 73.8443 28.1459 73.6713 27.9536C73.4983 27.7614 73.3445 27.5499 73.2483 27.3C73.1522 27.05 73.0753 26.7809 73.0369 26.4925C72.9984 26.2041 72.9792 25.8965 72.9792 25.5697V22.8589C72.9792 22.8589 73.0176 22.7628 73.0753 22.7628H74.4403C74.4403 22.7628 74.5364 22.8013 74.5364 22.8589V25.5697C74.5364 25.762 74.5364 25.9542 74.5557 26.1272C74.5557 26.3003 74.5941 26.4733 74.6326 26.6271C74.671 26.7617 74.7287 26.877 74.8056 26.9539C74.8825 27.05 74.9786 27.1269 75.1132 27.1654C75.267 27.2231 75.4208 27.2615 75.5554 27.2807C75.6899 27.2807 75.9014 27.3 76.1513 27.3C76.4013 27.3 76.6127 27.3 76.7473 27.2807C76.8819 27.2807 77.0357 27.2231 77.1895 27.1654C77.3241 27.1077 77.4394 27.0308 77.4971 26.9539C77.5548 26.877 77.6125 26.7424 77.6509 26.6271C77.6894 26.4925 77.7086 26.3195 77.7278 26.1465C77.7278 25.9542 77.7278 25.762 77.7278 25.5697V22.8589C77.7278 22.8589 77.7663 22.7628 77.8239 22.7628H79.1889L79.2851 22.782Z" fill="#333333"/>
<path d="M85.3403 22.782C85.3403 22.782 85.4364 22.8205 85.4364 22.8782V23.9356C85.4364 23.9356 85.398 24.0317 85.3403 24.0317H83.0333C82.8026 24.0317 82.6103 24.0509 82.4757 24.0894C82.3412 24.1278 82.2258 24.1855 82.1489 24.2432C82.072 24.3201 82.0143 24.397 81.9951 24.4931C81.9759 24.5892 81.9567 24.7046 81.9567 24.8199V28.415C81.9567 28.415 81.9182 28.5112 81.8605 28.5112H80.4955C80.4955 28.5112 80.3994 28.4727 80.3994 28.415V24.6661C80.3994 24.0317 80.6109 23.5703 81.0146 23.2434C81.4183 22.9166 82.072 22.7628 82.9371 22.7628H85.3595L85.3403 22.782Z" fill="#333333"/>
<path d="M103.604 22.782C103.604 22.782 103.7 22.8205 103.7 22.8782V25.5889C103.7 25.9158 103.7 26.2234 103.643 26.5117C103.604 26.8001 103.546 27.0693 103.45 27.3192C103.354 27.5691 103.22 27.7806 103.027 27.9728C102.835 28.1651 102.604 28.2805 102.316 28.3766C102.047 28.4535 101.778 28.5112 101.509 28.5496C101.239 28.5881 100.913 28.5881 100.509 28.5881C100.105 28.5881 99.7783 28.5881 99.5091 28.5496C99.24 28.5304 98.9708 28.4727 98.7017 28.3766C98.4133 28.2805 98.1634 28.1459 97.9903 27.9536C97.7981 27.7614 97.6635 27.5499 97.5674 27.3C97.4712 27.05 97.3943 26.7809 97.3559 26.4925C97.3174 26.2041 97.2982 25.8965 97.2982 25.5697V22.8589C97.2982 22.8589 97.3367 22.7628 97.3943 22.7628H98.7593C98.7593 22.7628 98.8555 22.8013 98.8555 22.8589V25.5697C98.8555 25.762 98.8555 25.9542 98.8747 26.1272C98.8747 26.3003 98.9131 26.4733 98.9516 26.6271C98.99 26.7617 99.0477 26.877 99.1246 26.9539C99.2015 27.05 99.2976 27.1269 99.4322 27.1654C99.586 27.2231 99.7398 27.2615 99.8744 27.2807C100.009 27.2807 100.22 27.3 100.47 27.3C100.72 27.3 100.932 27.3 101.066 27.2807C101.201 27.2807 101.355 27.2231 101.509 27.1654C101.643 27.1077 101.758 27.0308 101.816 26.9539C101.893 26.8578 101.931 26.7424 101.97 26.6271C102.008 26.4925 102.028 26.3195 102.047 26.1465C102.066 25.9734 102.047 25.762 102.047 25.5697V22.8589C102.047 22.8589 102.085 22.7628 102.143 22.7628H103.508L103.604 22.782Z" fill="#333333"/>
<path d="M107.277 21.2631C107.277 21.2631 107.373 21.3015 107.373 21.3592V22.7819H109.949C109.949 22.7819 110.045 22.8203 110.045 22.878V23.9354C110.045 23.9354 110.007 24.0315 109.949 24.0315H107.373V26.5115C107.373 26.6846 107.431 26.8576 107.546 27.0306C107.661 27.2037 107.815 27.2806 108.007 27.2806H109.795C109.795 27.2806 109.892 27.319 109.892 27.3767V28.4341C109.892 28.4341 109.853 28.5302 109.795 28.5302H107.796C107.508 28.5302 107.238 28.4725 106.989 28.3572C106.739 28.2418 106.527 28.1072 106.354 27.915C106.181 27.7227 106.027 27.5113 105.931 27.2806C105.835 27.0306 105.777 26.7807 105.777 26.5115V24.0315H104.778C104.778 24.0315 104.682 23.993 104.682 23.9354V22.878C104.682 22.878 104.72 22.7819 104.778 22.7819H105.777V21.3592C105.777 21.3592 105.816 21.2631 105.873 21.2631H107.238H107.277Z" fill="#333333"/>
<path d="M117.37 22.782C117.37 22.782 117.466 22.8205 117.466 22.8782V25.5889C117.466 25.9158 117.466 26.2234 117.409 26.5117C117.37 26.8001 117.312 27.0693 117.216 27.3192C117.12 27.5691 116.986 27.7806 116.793 27.9728C116.62 28.1459 116.37 28.2805 116.082 28.3766C115.813 28.4535 115.544 28.5112 115.275 28.5496C115.005 28.5881 114.679 28.5881 114.275 28.5881C113.871 28.5881 113.544 28.5881 113.275 28.5496C113.006 28.5304 112.737 28.4727 112.468 28.3766C112.179 28.2805 111.929 28.1459 111.756 27.9536C111.564 27.7614 111.429 27.5499 111.333 27.3C111.237 27.05 111.16 26.7809 111.122 26.4925C111.083 26.2041 111.064 25.8965 111.064 25.5697V22.8589C111.064 22.8589 111.103 22.7628 111.16 22.7628H112.525C112.525 22.7628 112.621 22.8013 112.621 22.8589V25.5697C112.621 25.762 112.621 25.9542 112.641 26.1272C112.641 26.3003 112.679 26.4733 112.718 26.6271C112.756 26.7617 112.814 26.877 112.891 26.9539C112.968 27.05 113.064 27.1269 113.198 27.1654C113.352 27.2231 113.506 27.2615 113.64 27.2807C113.775 27.2807 113.986 27.3 114.236 27.3C114.486 27.3 114.698 27.3 114.832 27.2807C114.967 27.2807 115.121 27.2231 115.275 27.1654C115.409 27.1077 115.524 27.0308 115.582 26.9539C115.659 26.8578 115.697 26.7424 115.736 26.6271C115.774 26.4925 115.794 26.3195 115.813 26.1465C115.832 25.9734 115.813 25.762 115.813 25.5697V22.8589C115.813 22.8589 115.851 22.7628 115.909 22.7628H117.274L117.37 22.782Z" fill="#333333"/>
<path d="M123.446 22.782C123.446 22.782 123.542 22.8205 123.542 22.8782V23.9356C123.542 23.9356 123.503 24.0317 123.446 24.0317H121.138C120.908 24.0317 120.716 24.0509 120.581 24.0894C120.446 24.1278 120.331 24.1855 120.254 24.2432C120.177 24.3008 120.12 24.397 120.1 24.4931C120.081 24.5892 120.062 24.7046 120.062 24.8199V28.415C120.062 28.415 120.023 28.5112 119.966 28.5112H118.601C118.601 28.5112 118.505 28.4727 118.505 28.415V24.6661C118.505 24.0317 118.716 23.5703 119.12 23.2434C119.524 22.9166 120.177 22.7628 121.042 22.7628H123.465L123.446 22.782Z" fill="#333333"/>
<path d="M129.251 22.782C129.539 22.782 129.809 22.8397 130.039 22.9358C130.27 23.032 130.501 23.1858 130.674 23.378C130.847 23.5703 130.981 23.7818 131.097 24.0125C131.193 24.2624 131.25 24.5123 131.25 24.7622V25.7427C131.25 25.8773 131.193 26.0119 131.077 26.1272C130.962 26.2618 130.808 26.3195 130.635 26.3195H126.156V26.531C126.156 26.704 126.213 26.877 126.329 27.0308C126.444 27.1846 126.598 27.2615 126.809 27.2615H130.847C130.847 27.2615 130.943 27.3 130.943 27.3576V28.415C130.943 28.415 130.904 28.5112 130.847 28.5112H126.598C126.31 28.5112 126.04 28.4535 125.791 28.3189C125.541 28.2036 125.348 28.0305 125.175 27.8383C125.002 27.646 124.868 27.4153 124.752 27.1654C124.656 26.9155 124.599 26.6655 124.579 26.3964C124.579 26.281 124.579 26.1657 124.579 26.0311C124.579 25.8965 124.579 25.762 124.579 25.6274C124.579 25.4928 124.579 25.3582 124.579 25.2236C124.579 25.0891 124.579 24.9737 124.579 24.8584C124.579 24.5892 124.637 24.3393 124.752 24.0894C124.848 23.8394 125.002 23.6087 125.175 23.4165C125.348 23.2242 125.56 23.0512 125.81 22.9358C126.06 22.8205 126.31 22.7628 126.617 22.7628H129.27L129.251 22.782ZM129.501 25.0891C129.501 25.0891 129.597 25.0891 129.636 25.0314C129.674 24.9929 129.693 24.9545 129.693 24.8968V24.7046C129.693 24.4546 129.636 24.2816 129.539 24.1855C129.424 24.0894 129.27 24.0509 129.078 24.0509H126.829C126.636 24.0509 126.463 24.1086 126.348 24.2432C126.233 24.3777 126.175 24.5315 126.175 24.7046V25.0891H129.52H129.501Z" fill="#333333"/>
<path d="M13.8998 25.1465H0V25.6463H13.8998V25.1465Z" fill="#333333"/>
<path d="M96.2028 20.4751H89.993V28.4151C89.993 28.492 90.0315 28.5497 90.0892 28.5497H91.6656C91.6656 28.5497 91.7618 28.5112 91.7618 28.4151V25.2045H95.9913C96.0874 25.2045 96.1451 25.166 96.1451 25.1083V23.9164C96.1451 23.9164 96.0874 23.8203 95.9913 23.8203H91.7425V21.8593H96.2028C96.2028 21.8593 96.2989 21.8401 96.2989 21.7632V20.5904C96.2989 20.5904 96.2605 20.4943 96.2028 20.4943V20.4751Z" fill="#333333"/>
<path d="M148.918 25.1465H135.019V25.6463H148.918V25.1465Z" fill="#333333"/>
</svg>
