<svg width="22" height="20" viewBox="0 0 22 20" fill="none" xmlns="http://www.w3.org/2000/svg">
<path d="M5.35026 13.2805C7.23138 15.5031 9.49584 17.253 12.0804 18.4912C13.0644 18.9521 14.3804 19.4989 15.8466 19.5927C15.9375 19.5966 16.0244 19.6005 16.1153 19.6005C17.0994 19.6005 17.8897 19.2646 18.5339 18.5732C18.5379 18.5693 18.5458 18.5615 18.5497 18.5537C18.7789 18.2803 19.0398 18.0342 19.3124 17.7725C19.4982 17.5967 19.6879 17.4131 19.8697 17.2256C20.7114 16.3585 20.7114 15.257 19.8618 14.4172L17.4866 12.0697C17.0836 11.6556 16.6014 11.4369 16.0956 11.4369C15.5897 11.4369 15.1036 11.6556 14.6887 12.0658L13.2739 13.4641C13.1435 13.3899 13.0091 13.3235 12.8826 13.261C12.7246 13.1829 12.5783 13.1087 12.4479 13.0267C11.1596 12.2181 9.98983 11.1635 8.87144 9.80808C8.30631 9.10109 7.92692 8.50738 7.66214 7.90194C8.03363 7.56993 8.3814 7.22229 8.71731 6.88247C8.83587 6.76138 8.95838 6.64029 9.08089 6.51921C9.5077 6.09736 9.73691 5.6091 9.73691 5.11304C9.73691 4.61697 9.51165 4.12872 9.08089 3.70687L7.90321 2.54287C7.76489 2.40616 7.63448 2.27335 7.50012 2.13664C7.23929 1.87103 6.9666 1.59761 6.69787 1.35153C6.29082 0.95702 5.81264 0.75 5.30679 0.75C4.8049 0.75 4.32276 0.95702 3.89991 1.35543L2.42188 2.81629C1.88442 3.34751 1.58012 3.99201 1.51689 4.73806C1.4418 5.6716 1.61569 6.66373 2.06621 7.86288C2.7578 9.71825 3.80111 11.4408 5.35026 13.2805ZM2.48116 4.82008C2.52858 4.30058 2.73013 3.86701 3.10952 3.49203L4.57964 2.03899C4.80885 1.82025 5.06177 1.70698 5.30679 1.70698C5.54786 1.70698 5.79288 1.82025 6.01814 2.0468C6.28292 2.28898 6.53189 2.54287 6.80062 2.81238C6.93499 2.9491 7.07331 3.08581 7.21162 3.22642L8.3893 4.39042C8.63432 4.63259 8.76078 4.87867 8.76078 5.12085C8.76078 5.36302 8.63432 5.6091 8.3893 5.85128C8.26679 5.97236 8.14428 6.09736 8.02177 6.21844C7.65424 6.58561 7.31042 6.93325 6.93104 7.26526C6.92313 7.27307 6.91918 7.27698 6.91128 7.28479C6.58327 7.60899 6.63464 7.91757 6.71368 8.15193C6.71763 8.16365 6.72159 8.17146 6.72554 8.18318C7.02984 8.90579 7.45269 9.59325 8.11266 10.4135C9.29824 11.8588 10.5471 12.9798 11.9223 13.843C12.0923 13.9524 12.274 14.0383 12.444 14.1242C12.6021 14.2024 12.7483 14.2766 12.8787 14.3586C12.8945 14.3664 12.9064 14.3742 12.9222 14.382C13.0526 14.4484 13.179 14.4797 13.3055 14.4797C13.6217 14.4797 13.8272 14.2805 13.8943 14.2141L15.3724 12.7532C15.6016 12.5267 15.8505 12.4056 16.0956 12.4056C16.3959 12.4056 16.6409 12.5892 16.7951 12.7532L19.1781 15.1047C19.6523 15.5734 19.6484 16.0812 19.1662 16.5772C19.0002 16.753 18.8264 16.921 18.6406 17.0967C18.364 17.3623 18.0755 17.6358 17.8147 17.9443C17.3602 18.4287 16.8188 18.6552 16.1193 18.6552C16.0521 18.6552 15.981 18.6513 15.9138 18.6474C14.6175 18.5654 13.4122 18.0654 12.5072 17.6397C10.0491 16.464 7.89136 14.7961 6.10113 12.679C4.62706 10.9252 3.63513 9.29249 2.97911 7.54259C2.57206 6.46843 2.41793 5.6052 2.48116 4.82008Z" fill="black"/>
</svg>
