<svg width="59" height="84" viewBox="0 0 59 84" fill="none" xmlns="http://www.w3.org/2000/svg">
<path fill-rule="evenodd" clip-rule="evenodd" d="M56.7544 18.1489C58.2369 21.7163 59 25.5391 59 29.3999C59.0002 35.0063 57.3854 40.4946 54.3474 45.2129H54.377L29.5 84L4.62305 45.2129H4.65674C1.72363 40.6436 0 35.2256 0 29.3999C0 25.5391 0.763062 21.7163 2.24561 18.1489C3.72803 14.582 5.901 11.3413 8.64038 8.61084C11.3796 5.88086 14.6317 3.71533 18.2108 2.23779C21.7899 0.760254 25.626 0 29.5 0C33.374 0 37.2101 0.760254 40.7892 2.23779C44.3683 3.71533 47.6204 5.88086 50.3596 8.61084C53.099 11.3413 55.272 14.582 56.7544 18.1489Z" fill="#EC2830"/>
<path d="M31.4127 16C37.119 16 42.8254 17.6154 42.8254 25.4232C42.8254 31.4809 38.5788 34.308 33.0051 34.308H27.9623V42.5196H20V16H31.4127ZM27.9623 28.1155H31.8108C33.8014 28.1155 35.1284 27.4425 35.1284 25.2885C35.1284 23.404 34.0668 22.4616 31.6781 22.4616H27.9623V28.1155Z" fill="white"/>
</svg>
