<svg width="60" height="70" viewBox="0 0 60 70" fill="none" xmlns="http://www.w3.org/2000/svg">
<path d="M57.0443 11.8513C43.0771 11.8513 32.3801 1.08954 32.2 0.906363C31.0304 -0.299538 28.9799 -0.304344 27.8017 0.905295C27.6949 1.01424 16.9714 11.8513 2.95567 11.8513C1.32312 11.8513 0 13.0754 0 14.5857C0 38.6183 5.23938 59.4107 28.7317 69.7356C29.5341 70.0881 30.4659 70.0881 31.2683 69.7356C54.8137 59.3872 60 38.5232 60 14.5857C60 13.0754 58.6769 11.8513 57.0443 11.8513ZM30 64.2172C10.7478 55.1046 6.22422 37.3579 5.92923 17.1914C17.2577 16.2124 26.0791 9.89721 30 6.57538C33.9209 9.89721 42.7428 16.2124 54.0708 17.1914C53.7758 37.3622 49.2499 55.1057 30 64.2172ZM26.9647 37.6634L38.994 26.5347C40.148 25.4671 42.0195 25.4666 43.1735 26.5347C44.328 27.6028 44.328 29.3337 43.1741 30.4018L29.055 43.4638C27.901 44.5313 26.0289 44.5308 24.8749 43.4638L16.8265 36.0179C15.672 34.9498 15.672 33.2184 16.8265 32.1508C17.9805 31.0827 19.852 31.0827 21.0066 32.1508L26.9647 37.6634Z" fill="white"/>
</svg>
